<?xml version="1.0"?>
<svg width="24" height="24" xmlns="http://www.w3.org/2000/svg" xmlns:svg="http://www.w3.org/2000/svg" version="1.1">

 <g class="layer">
  <title>Layer 1</title>
  <path d="m16.24,4c-1.66,0 -3.19,0.61 -4.25,1.65c-1.08,-1.04 -2.6,-1.65 -4.23,-1.65c-3.16,0 -5.76,2.32 -5.76,5.2c0,1.39 0.6,2.7 1.69,3.68l7.62,6.87c0.18,0.17 0.42,0.25 0.66,0.25c0.24,0 0.48,-0.08 0.66,-0.25l7.68,-6.87c1.09,-0.99 1.69,-2.3 1.69,-3.68c-0.01,-2.87 -2.59,-5.2 -5.76,-5.2zm2.74,7.68l-7,6.28l-6.96,-6.28c-0.74,-0.66 -1.14,-1.54 -1.14,-2.48c0,-1.94 1.75,-3.51 3.88,-3.51c1.43,0 2.74,0.7 3.42,1.82c0.17,0.27 0.47,0.44 0.83,0.43c0.35,0 0.66,-0.18 0.82,-0.45c0.64,-1.09 1.97,-1.8 3.41,-1.8c2.13,0 3.88,1.57 3.89,3.51c0,0.93 -0.41,1.82 -1.15,2.48z" fill="#f23c6d" id="path1"/>
  <path d="m8.39,13.69c-2.43,-2.18 -3.64,-3.31 -3.8,-3.51c-0.78,-1.02 -0.91,-2.27 -0.35,-3.4c0.78,-1.57 2.76,-2.4 4.57,-1.93c0.94,0.24 1.78,0.82 2.3,1.58c0.21,0.31 0.39,0.45 0.67,0.51c0.46,0.09 0.84,-0.09 1.13,-0.51c0.26,-0.41 0.45,-0.61 0.8,-0.87c1.24,-0.94 2.91,-1.11 4.32,-0.43c0.66,0.31 1.13,0.71 1.49,1.26c0.43,0.64 0.57,1.11 0.56,1.86c0,0.46 -0.01,0.55 -0.14,0.92c-0.15,0.43 -0.29,0.69 -0.57,1.06c-0.14,0.19 -7.28,6.64 -7.38,6.67c-0.02,0.01 -1.64,-1.44 -3.6,-3.21z" fill="#f23c6d" id="path2" stroke-width="0.04" transform="matrix(1 0 0 1 0 0)"/>
 </g>
</svg>