<?xml version="1.0"?>
<svg width="24" height="24" xmlns="http://www.w3.org/2000/svg" xmlns:svg="http://www.w3.org/2000/svg">
 <g class="layer">
  <title>Layer 1</title>
  <path d="m16.24,4c-1.66,0 -3.19,0.61 -4.25,1.65c-1.08,-1.04 -2.6,-1.65 -4.23,-1.65c-3.16,0 -5.76,2.32 -5.76,5.2c0,1.39 0.6,2.7 1.69,3.68l7.62,6.87c0.18,0.17 0.42,0.25 0.66,0.25c0.24,0 0.48,-0.08 0.66,-0.25l7.68,-6.87c1.09,-0.99 1.69,-2.3 1.69,-3.68c-0.01,-2.87 -2.59,-5.2 -5.76,-5.2zm2.74,7.68l-7,6.28l-6.96,-6.28c-0.74,-0.66 -1.14,-1.54 -1.14,-2.48c0,-1.94 1.75,-3.51 3.88,-3.51c1.43,0 2.74,0.7 3.42,1.82c0.17,0.27 0.47,0.44 0.83,0.43c0.35,0 0.66,-0.18 0.82,-0.45c0.64,-1.09 1.97,-1.8 3.41,-1.8c2.13,0 3.88,1.57 3.89,3.51c0,0.93 -0.41,1.82 -1.15,2.48z" fill="#f23c6d" id="svg_1"/>
 </g>
</svg>